<svg xmlns="http://www.w3.org/2000/svg" viewBox="0 0 120.73 135.69"><defs><style>.cls-1{fill:none;}.cls-2{fill:#cc195a;}.cls-3{fill:#404040;}</style></defs><g id="Capa_2" data-name="Capa 2"><g id="Capa_1-2" data-name="Capa 1"><rect class="cls-1" x="0.06" y="0.06" width="11.97" height="11.96"/><rect class="cls-1" x="108.71" y="123.66" width="11.97" height="11.96"/><rect class="cls-1" x="0.06" y="123.66" width="11.97" height="11.96"/><rect class="cls-1" x="108.71" y="0.06" width="11.97" height="11.96"/><polygon class="cls-2" points="102.53 36.37 90.19 43.5 60.37 60.71 30.55 43.5 30.54 43.5 18.2 36.37 18.19 36.37 12.03 39.94 12.03 47.06 12.03 95.75 24.37 102.87 24.37 54.19 48.02 67.84 54.2 71.41 60.37 74.97 66.54 71.41 72.72 67.84 108.7 47.06 108.7 39.94 102.53 36.37"/><polygon class="cls-2" points="60.36 26.28 84.02 39.94 96.36 32.81 60.36 12.03 24.36 32.81 36.71 39.94 60.36 26.28"/><polygon class="cls-3" points="96.36 61.24 96.36 102.87 108.7 95.75 108.7 54.12 96.36 61.24"/><polyline class="cls-3" points="54.2 105.84 30.55 92.19 30.53 92.18 30.49 106.41 54.2 120.1 60.36 123.66 66.54 120.09 90.25 106.41 90.21 92.18 90.19 92.19 66.55 105.83 66.55 78.53 60.38 82.09 60.37 82.09 54.2 78.54 54.2 105.85"/><path class="cls-1" d="M120.73,135.69H0V0H120.73ZM.13,135.56H120.61V.13H.13Z"/></g></g></svg>