<svg width="300" height="260" viewBox="0 0 300 260" fill="none" xmlns="http://www.w3.org/2000/svg">
<path d="M222.735 3.8743L295.498 129.881L222.735 255.907H77.2277L4.48312 129.881L77.2277 3.8743H222.735ZM224.968 0H74.9769L73.7962 1.93715L1.12539 127.944L0 129.881L1.12539 131.726L73.7962 257.844L74.9031 259.8H224.894L226.019 257.844L298.875 131.818L300 129.974L298.875 127.944L226.093 1.93715L224.968 0.0922453V0Z" fill="black"/>
<path d="M217.09 13.6707H82.8916L15.7739 129.881L82.8916 246.11H217.09L284.208 129.881L217.09 13.6707ZM155.396 69.1839C160.322 49.8124 174.786 37.2855 188.309 40.7355C195.136 42.4513 200.449 47.9122 203.235 56.1036C205.777 64.3294 205.924 73.1092 203.659 81.4157C199.25 98.6471 187.387 110.436 175.266 110.436C173.736 110.434 172.213 110.248 170.727 109.883C157.223 106.433 150.47 88.5555 155.396 69.1839ZM111.672 40.7355C118.074 39.112 124.586 41.0307 130.379 45.5692C131.062 46.1042 131.726 46.6946 132.353 47.2665C138.421 53.2617 142.662 60.8555 144.585 69.1655C146.852 77.4718 146.704 86.2519 144.161 94.4776C141.357 102.669 136.062 108.13 129.217 109.883C127.738 110.247 126.22 110.433 124.697 110.436C112.595 110.436 100.713 98.6471 96.3225 81.4157C91.3966 62.0442 98.1305 44.167 111.672 40.7355ZM63.9813 139.419C59.3608 132.157 56.9036 123.73 56.8969 115.122C57.192 106.469 60.5682 99.6249 66.6011 95.9351C78.5007 88.5555 96.0088 96.2856 106.469 113.351C111.075 120.62 113.531 129.043 113.554 137.648C113.314 146.283 109.864 153.072 103.85 156.78C100.824 158.608 97.3479 159.553 93.8134 159.511C83.445 159.566 71.7668 152.094 63.9813 139.419ZM179.122 219.544H120.897C114.512 219.517 108.291 217.517 103.087 213.819C97.8817 210.121 93.9467 204.905 91.8202 198.885C89.6936 192.865 89.4793 186.335 91.2066 180.188C92.934 174.041 96.5185 168.578 101.47 164.547C101.647 164.388 101.838 164.246 102.042 164.123C102.577 163.772 103.13 163.385 103.665 162.997L103.923 162.813C104.145 162.665 104.366 162.518 104.569 162.352C106.737 160.712 108.733 158.858 110.528 156.817C115.479 151.616 118.751 145.047 119.919 137.962C120.048 137.242 120.14 136.541 120.214 135.877C120.241 135.571 120.296 135.269 120.38 134.973C121.755 128.083 125.483 121.886 130.925 117.441C136.366 112.997 143.184 110.582 150.209 110.61C157.235 110.639 164.033 113.108 169.438 117.597C174.844 122.085 178.522 128.312 179.841 135.213C179.834 135.274 179.834 135.336 179.841 135.398V135.674V136.154L180.026 137.63C180.034 137.666 180.034 137.704 180.026 137.741C181.193 144.921 184.52 151.575 189.564 156.817C191.314 158.856 193.267 160.71 195.394 162.352H195.56C196.279 162.924 197.073 163.459 197.921 164.012L198.456 164.399C203.449 168.416 207.074 173.881 208.833 180.042C210.591 186.203 210.397 192.758 208.277 198.805C206.157 204.851 202.216 210.092 196.994 213.806C191.773 217.52 185.529 219.524 179.122 219.544ZM217.551 156.817C213.989 158.573 210.084 159.524 206.113 159.603C202.587 159.61 199.128 158.646 196.113 156.817C190.117 153.127 186.667 146.319 186.428 137.685C186.423 129.076 188.881 120.645 193.512 113.388C203.973 96.3225 221.499 88.6846 233.38 95.972C245.262 103.259 246.424 122.354 235.982 139.401C231.615 146.838 225.223 152.878 217.551 156.817Z" fill="black"/>
<path d="M149.991 128.756C153.368 128.749 156.642 129.918 159.252 132.063C161.861 134.207 163.642 137.193 164.289 140.508V140.785L164.473 142.132V142.519C165.882 151.354 169.934 159.555 176.096 166.041C178.202 168.442 180.544 170.624 183.088 172.554C183.254 172.699 183.434 172.829 183.623 172.941C184.393 173.548 185.194 174.115 186.022 174.639C188.401 176.652 190.104 179.349 190.9 182.362C191.696 185.376 191.546 188.562 190.47 191.487C189.395 194.413 187.447 196.937 184.889 198.719C182.331 200.5 179.287 201.452 176.17 201.445H123.793C120.671 201.452 117.622 200.496 115.062 198.708C112.502 196.919 110.557 194.384 109.49 191.45C108.423 188.515 108.286 185.323 109.1 182.308C109.913 179.293 111.636 176.602 114.034 174.602L115.639 173.495L115.915 173.31L116.727 172.702C119.339 170.731 121.744 168.499 123.904 166.041C130.001 159.565 134.001 151.399 135.379 142.611C135.508 141.929 135.582 141.264 135.674 140.656V140.471C136.328 137.16 138.111 134.178 140.719 132.034C143.326 129.891 146.597 128.719 149.972 128.719M149.972 124.845C145.673 124.843 141.509 126.342 138.197 129.084C134.886 131.826 132.637 135.638 131.837 139.862C131.837 140.526 131.652 141.228 131.542 141.984C130.266 150.046 126.588 157.537 120.989 163.477C118.998 165.74 116.785 167.798 114.384 169.621L113.628 170.193L113.388 170.359L111.727 171.484C108.678 173.974 106.473 177.346 105.415 181.138C104.358 184.931 104.5 188.957 105.822 192.666C107.143 196.374 109.58 199.583 112.798 201.852C116.015 204.121 119.856 205.338 123.793 205.338H176.17C180.088 205.324 183.907 204.105 187.109 201.846C190.31 199.588 192.739 196.399 194.067 192.713C195.394 189.027 195.556 185.021 194.529 181.24C193.502 177.459 191.337 174.085 188.328 171.576C187.442 171.023 186.649 170.451 185.893 169.879L185.561 169.639C183.157 167.827 180.943 165.775 178.956 163.514C173.32 157.543 169.628 150.004 168.366 141.892C168.366 141.892 168.366 141.744 168.366 141.689L168.182 140.323C168.19 140.25 168.19 140.176 168.182 140.102C168.194 140.047 168.194 139.991 168.182 139.936C167.39 135.705 165.143 131.885 161.831 129.135C158.519 126.386 154.35 124.881 150.046 124.882L149.972 124.845ZM183.347 56.3619C183.67 56.3611 183.992 56.3983 184.306 56.4726C186.981 57.1736 188.439 60.9557 188.826 62.118C190.347 67.1915 190.386 72.5943 188.937 77.689C186.428 87.5777 180.081 94.2931 175.727 94.2931C175.404 94.2938 175.082 94.2567 174.768 94.1824C170.414 93.0755 167.388 83.5742 170.119 72.966C172.628 63.0773 178.974 56.3619 183.347 56.3619ZM183.347 52.4876C176.631 52.4876 169.178 60.7896 166.355 71.9513C163.256 84.2015 166.65 96.0458 173.735 97.78C174.337 97.9363 174.957 98.0169 175.58 98.0198C182.277 98.0198 189.73 89.6993 192.553 78.5561C194.182 72.7306 194.118 66.5616 192.368 60.7712C191.501 58.1883 189.38 53.7237 185.118 52.6352C184.515 52.4789 183.895 52.3983 183.273 52.3953L183.347 52.4876ZM77.486 109.237C81.7293 109.237 88.5555 113.388 93.4445 121.339C96.3474 125.773 97.9162 130.947 97.9645 136.246C97.9645 137.796 97.5955 141.56 95.3078 142.962C94.5676 143.385 93.7249 143.596 92.8726 143.571C88.6108 143.571 81.8031 139.419 76.8957 131.486C74.0003 127.049 72.4322 121.878 72.3757 116.58C72.3757 115.03 72.7446 111.266 75.0323 109.864C75.7733 109.425 76.625 109.207 77.486 109.237ZM77.486 105.363C75.9088 105.334 74.3553 105.75 73.0029 106.562C69.3131 108.849 68.5567 113.757 68.4829 116.487C68.5357 122.531 70.3013 128.435 73.5749 133.516C78.8513 142.058 86.7106 147.445 92.9279 147.445C94.4974 147.477 96.0444 147.068 97.3926 146.264C101.082 143.976 101.839 139.051 101.913 136.339C101.86 130.289 100.095 124.379 96.8207 119.292C91.5996 110.787 83.7034 105.363 77.5414 105.363H77.486ZM116.635 56.3619C120.934 56.3619 127.151 62.8006 129.752 72.4494L129.863 72.9291C131.328 78.0404 131.29 83.4655 129.752 88.5555C129.254 90.0498 127.797 93.5552 125.214 94.2009C124.899 94.2751 124.577 94.3123 124.254 94.3116C119.9 94.3116 113.535 87.6699 111.026 77.7074C108.333 67.1177 111.322 57.598 115.657 56.5095C115.975 56.4177 116.304 56.3742 116.635 56.3803M116.635 52.506C116.012 52.509 115.393 52.5896 114.79 52.7459C107.65 54.5908 104.237 66.4351 107.41 78.6668C110.252 89.7362 117.705 98.1305 124.402 98.1305C125.025 98.1276 125.644 98.047 126.247 97.8907C130.527 96.8206 132.63 92.356 133.497 89.7547C135.246 83.9552 135.29 77.7755 133.627 71.9513C130.785 60.8819 123.35 52.4876 116.635 52.4876V52.506ZM222.44 109.255C223.301 109.227 224.152 109.445 224.894 109.883C226.131 110.796 226.97 112.15 227.237 113.665C228.399 118.461 226.739 125.472 223.031 131.505C220.392 136.095 216.502 139.838 211.814 142.298C210.312 143.064 208.664 143.498 206.98 143.571C206.151 143.599 205.331 143.387 204.618 142.962C202.331 141.578 201.999 137.814 201.962 136.265C202.016 130.961 203.584 125.782 206.482 121.339C211.334 113.406 218.197 109.255 222.44 109.255ZM222.44 105.381C216.278 105.381 208.382 110.805 203.161 119.31C199.887 124.397 198.121 130.308 198.069 136.357C198.069 139.069 198.825 143.995 202.589 146.283C203.916 147.071 205.437 147.473 206.98 147.445C209.238 147.373 211.453 146.813 213.474 145.803C218.858 143.025 223.338 138.769 226.388 133.534C232.993 122.778 233.251 110.418 226.96 106.58C225.607 105.77 224.054 105.354 222.477 105.381H222.44Z" fill="black"/>
</svg>
